<svg height="98.592" viewBox="0 0 205.248 98.592" width="205.248" xmlns="http://www.w3.org/2000/svg"><path d="m154.08 45.696 1.056-1.824 1.056-3.456q.672-1.92.96-3.6a37.608 37.608 0 0 0 .228-1.501q.092-.708.143-1.343a22.229 22.229 0 0 0 .013-.18 1.837 1.837 0 0 1 .109-.516q.218-.572.85-.697a1.987 1.987 0 0 1 .385-.035q1.31 0 1.428.953a1.614 1.614 0 0 1 .012.199q0 1.44-.288 2.88-.288 1.44-.768 2.976a27.476 27.476 0 0 1 4.443-3.004q2.81-1.499 5.6-1.967a15.279 15.279 0 0 1 2.533-.213 5.484 5.484 0 0 1 2.045.366q1.301.518 2.191 1.767a6.443 6.443 0 0 1 .18.267q1.344 1.92 1.344 4.224a16.843 16.843 0 0 1 -.783 4.855q-1.444 4.783-5.553 10.697-6.72 9.792-12.96 9.792a3.369 3.369 0 0 1 -1.185-.191q-1.482-.556-1.59-2.722a7.042 7.042 0 0 1 -.009-.351q0-1.772 1.178-1.823a1.637 1.637 0 0 1 .07-.001q.44 0 1.161.448a7.947 7.947 0 0 1 .471.32q.48.096.96.144a3.473 3.473 0 0 1 .84.194 3.923 3.923 0 0 1 .12.046 6.497 6.497 0 0 0 3.3-.985q3.097-1.816 6.396-6.983a43.196 43.196 0 0 0 2.519-4.585q2.281-4.884 2.281-8.855a3.508 3.508 0 0 0 -.389-1.579q-.266-.534-.715-1.061a4.847 4.847 0 0 0 -.668-.655q-.435-.346-.89-.505a2.389 2.389 0 0 0 -.794-.136q-7.174-.083-11.956 5.125a20.225 20.225 0 0 0 -1.388 1.691l-1.248 3.936q-6.048 20.256-6.048 39.072l-.096 5.184-.096 4.896a1.355 1.355 0 0 1 -.803 1.297q-.597.3-1.638.331a8.246 8.246 0 0 1 -.247.004q-1.147 0-1.488-.522a.956.956 0 0 1 -.144-.534q0-.462-.089-1.458a50.118 50.118 0 0 0 -.007-.078q-.096-1.056-.288-2.592-.096-1.344-.192-2.448a13.941 13.941 0 0 1 -.033-.462q-.042-.789.033-1.314.294-4.998 1.376-11.487a181.598 181.598 0 0 1 .736-4.113q1.728-9.072 4.992-20.688a.885.885 0 0 1 -.317-.103q-.347-.199-.355-.737a1.721 1.721 0 0 1 0-.024q-.397-.397-.466-1.124a3.376 3.376 0 0 1 -.014-.316 4.384 4.384 0 0 1 .669-2.315 5.395 5.395 0 0 1 .147-.229q.816-1.2 1.68-2.352zm27.648 0 1.056-1.824 1.056-3.456q.672-1.92.96-3.6a37.608 37.608 0 0 0 .228-1.501q.092-.708.143-1.343a22.229 22.229 0 0 0 .013-.18 1.837 1.837 0 0 1 .109-.516q.218-.572.85-.697a1.987 1.987 0 0 1 .385-.035q1.31 0 1.428.953a1.614 1.614 0 0 1 .012.199q0 1.44-.288 2.88-.288 1.44-.768 2.976a27.476 27.476 0 0 1 4.443-3.004q2.81-1.499 5.6-1.967a15.279 15.279 0 0 1 2.533-.213 5.484 5.484 0 0 1 2.045.366q1.301.518 2.191 1.767a6.443 6.443 0 0 1 .18.267q1.344 1.92 1.344 4.224a16.843 16.843 0 0 1 -.783 4.855q-1.444 4.783-5.553 10.697-6.72 9.792-12.96 9.792a3.369 3.369 0 0 1 -1.185-.191q-1.482-.556-1.59-2.722a7.042 7.042 0 0 1 -.009-.351q0-1.772 1.178-1.823a1.637 1.637 0 0 1 .07-.001q.44 0 1.161.448a7.947 7.947 0 0 1 .471.32q.48.096.96.144a3.473 3.473 0 0 1 .84.194 3.923 3.923 0 0 1 .12.046 6.497 6.497 0 0 0 3.3-.985q3.097-1.816 6.396-6.983a43.196 43.196 0 0 0 2.519-4.585q2.281-4.884 2.281-8.855a3.508 3.508 0 0 0 -.389-1.579q-.266-.534-.715-1.061a4.847 4.847 0 0 0 -.668-.655q-.435-.346-.89-.505a2.389 2.389 0 0 0 -.794-.136q-7.174-.083-11.956 5.125a20.225 20.225 0 0 0 -1.388 1.691l-1.248 3.936q-6.048 20.256-6.048 39.072l-.096 5.184-.096 4.896a1.355 1.355 0 0 1 -.803 1.297q-.597.3-1.638.331a8.246 8.246 0 0 1 -.247.004q-1.147 0-1.488-.522a.956.956 0 0 1 -.144-.534q0-.462-.089-1.458a50.118 50.118 0 0 0 -.007-.078q-.096-1.056-.288-2.592-.096-1.344-.192-2.448a13.941 13.941 0 0 1 -.033-.462q-.042-.789.033-1.314.294-4.998 1.376-11.487a181.598 181.598 0 0 1 .736-4.113q1.728-9.072 4.992-20.688a.885.885 0 0 1 -.317-.103q-.347-.199-.355-.737a1.721 1.721 0 0 1 0-.024q-.397-.397-.466-1.124a3.376 3.376 0 0 1 -.014-.316 4.384 4.384 0 0 1 .669-2.315 5.395 5.395 0 0 1 .147-.229q.816-1.2 1.68-2.352zm-180.48-3.168-.096.096q1.397-.652 6.674-1.935a201.115 201.115 0 0 1 .334-.081q3.108-.795 5.291-1.916a14.767 14.767 0 0 0 1.333-.772l.576-4.896q.384-3.552 1.248-7.344a53.422 53.422 0 0 1 1.842-6.242 60.682 60.682 0 0 1 .558-1.486 61.571 61.571 0 0 1 2.708-6.275q2.182-4.334 4.78-7.453 2.165-2.507 4.33-3.526a6.912 6.912 0 0 1 2.966-.698q3.168 0 5.568 2.976a1.415 1.415 0 0 1 .249.328 1.113 1.113 0 0 1 .135.536 1.383 1.383 0 0 1 -.062.434q-.205.619-1.082.622a2.491 2.491 0 0 1 -.008 0 1.406 1.406 0 0 1 -1.013-.425 1.996 1.996 0 0 1 -.139-.151q-1.138-1.351-2.434-1.701a3.535 3.535 0 0 0 -.926-.123 5.002 5.002 0 0 0 -2.816.975q-2.907 1.978-6.017 7.968a56.664 56.664 0 0 0 -.287.561 41.711 41.711 0 0 0 -1.747 4.047q-.87 2.327-1.613 5.025a69.428 69.428 0 0 0 -1.34 5.925 92.572 92.572 0 0 0 -.868 5.835l-.096 1.632-.192 2.592a19.13 19.13 0 0 0 3.804.752 23.882 23.882 0 0 0 2.34.112l6.144-.192a6.779 6.779 0 0 1 1.015.103q1.218.228 1.641.933a1.687 1.687 0 0 1 .224.884 2.506 2.506 0 0 1 -.073.633q-.261.999-1.463.999h-7.488q-4.032.288-7.104 2.208-2.737 21.171-4.694 25.08a4.05 4.05 0 0 1 -.202.36q-.255.408-.537.599a.912.912 0 0 1 -.519.169 1.11 1.11 0 0 1 -.532-.146q-.363-.198-.74-.661a4.927 4.927 0 0 1 -.12-.153 7.769 7.769 0 0 1 -.949-1.676 9.121 9.121 0 0 1 -.203-.532 11.223 11.223 0 0 1 -.223-.716q-.209-.766-.209-1.3.165-3.217 1.323-7.144a47.224 47.224 0 0 1 .405-1.304 3.232 3.232 0 0 1 .202-.458q.462-.849 1.238-.694.192-1.632.432-4.128a219.096 219.096 0 0 1 .238-2.331q.128-1.195.281-2.526a385.498 385.498 0 0 1 .105-.903q-.48-1.344-2.016-1.344-.384 0-2.832.48-2.448.48-7.152 1.44a.409.409 0 0 0 -.147.028.502.502 0 0 0 -.045.02.151.151 0 0 1 -.049.014q-.091.012-.239-.062a1.132 1.132 0 0 1 -.414-.07q-.546-.213-.546-1.082 0-1.344 1.248-1.92zm66.432 9.312.096-2.016v-.288a3.575 3.575 0 0 0 -.027-.46q-.149-1.144-1.127-.822a2.037 2.037 0 0 0 -.094.034q-1.47 1.029-3.699 2.761a209.956 209.956 0 0 0 -1.437 1.127q-2.211 1.749-5.034 4.02a1338.351 1338.351 0 0 0 -2.694 2.172 6.566 6.566 0 0 1 -3.903 1.77 8.893 8.893 0 0 1 -.993.054 3.005 3.005 0 0 1 -2.083-.845q-.451-.413-.845-1.027a6.96 6.96 0 0 1 -.608-1.165q-.359-.898-.359-1.761a4.095 4.095 0 0 1 .055-.674 10.94 10.94 0 0 1 .557-2.351q.37-1.058.962-2.183a21.015 21.015 0 0 1 .497-.89 37.036 37.036 0 0 1 2.479-3.66 45.222 45.222 0 0 1 1.793-2.196q2.544-2.928 5.472-5.184 2.928-2.256 5.616-3.216a15.066 15.066 0 0 1 1.252-.397 12.25 12.25 0 0 1 .764-.179q.96-.192 1.92-.192a8.761 8.761 0 0 1 1.455.11q2.582.437 2.67 2.614a3.858 3.858 0 0 1 .003.156 1.762 1.762 0 0 1 -.031.35q-.125.61-.737.61-.288 0-.576-.048-.288-.048-.576-.24a8.837 8.837 0 0 0 -.949-.696q-1.184-.744-2.219-.744-1.44 0-4.224 1.728a24.006 24.006 0 0 0 -2.957 2.137 28.95 28.95 0 0 0 -1.363 1.223 38.881 38.881 0 0 0 -3.427 3.744 43.724 43.724 0 0 0 -.605.768q-1.396 1.838-2.343 3.365a25.803 25.803 0 0 0 -.537.907q-.75 1.33-1.064 2.441a6.24 6.24 0 0 0 -.184.871q-.096.384-.096.96 0 1.385 1.015 1.521a1.755 1.755 0 0 0 .233.015 3.092 3.092 0 0 0 .868-.153q1.378-.415 3.845-1.958a52.182 52.182 0 0 0 1.047-.673q8.736-5.824 12.857-10.494a24.832 24.832 0 0 0 1.159-1.41q.745-.968 1.374-2.457a18.963 18.963 0 0 0 .354-.903q.48-1.344 2.016-1.344 1.697 0 1.728 1.851a4.151 4.151 0 0 1 0 .069q0 1.397-1.19 3.428a16.883 16.883 0 0 1 -.25.412 101.934 101.934 0 0 0 -.953 3.048q-1.351 4.59-1.351 6.648a16.395 16.395 0 0 0 .349 2.756q.335 1.525.973 2.747a8.776 8.776 0 0 0 .694 1.121.964.964 0 0 1 .268.527 1.375 1.375 0 0 1 .02.241 1.963 1.963 0 0 1 -.19.821q-.134.293-.362.592a4.57 4.57 0 0 1 -.312.363 4.478 4.478 0 0 1 -.452.42q-.576.46-1.106.49a1.307 1.307 0 0 1 -.074.002 1.143 1.143 0 0 1 -.716-.253 1.571 1.571 0 0 1 -.148-.131q-2.184-2.265-2.596-6.304a18.93 18.93 0 0 1 -.092-1.568 3.838 3.838 0 0 1 .016-.336q.015-.164.042-.348a7.584 7.584 0 0 1 .038-.228q.096-.528.096-1.2zm70.944 0 .096-2.016v-.288a3.575 3.575 0 0 0 -.027-.46q-.149-1.144-1.127-.822a2.037 2.037 0 0 0 -.094.034q-1.47 1.029-3.699 2.761a209.956 209.956 0 0 0 -1.437 1.127q-2.211 1.749-5.034 4.02a1338.351 1338.351 0 0 0 -2.694 2.172 6.566 6.566 0 0 1 -3.903 1.77 8.893 8.893 0 0 1 -.993.054 3.005 3.005 0 0 1 -2.083-.845q-.451-.413-.845-1.027a6.96 6.96 0 0 1 -.608-1.165q-.359-.898-.359-1.761a4.095 4.095 0 0 1 .055-.674 10.94 10.94 0 0 1 .557-2.351q.37-1.058.962-2.183a21.015 21.015 0 0 1 .497-.89 37.036 37.036 0 0 1 2.479-3.66 45.222 45.222 0 0 1 1.793-2.196q2.544-2.928 5.472-5.184 2.928-2.256 5.616-3.216a15.066 15.066 0 0 1 1.252-.397 12.25 12.25 0 0 1 .764-.179q.96-.192 1.92-.192a8.761 8.761 0 0 1 1.455.11q2.582.437 2.67 2.614a3.858 3.858 0 0 1 .003.156 1.762 1.762 0 0 1 -.031.35q-.125.61-.737.61-.288 0-.576-.048-.288-.048-.576-.24a8.837 8.837 0 0 0 -.949-.696q-1.184-.744-2.219-.744-1.44 0-4.224 1.728a24.006 24.006 0 0 0 -2.957 2.137 28.95 28.95 0 0 0 -1.363 1.223 38.881 38.881 0 0 0 -3.427 3.744 43.724 43.724 0 0 0 -.605.768q-1.396 1.838-2.343 3.365a25.803 25.803 0 0 0 -.537.907q-.75 1.33-1.064 2.441a6.24 6.24 0 0 0 -.184.871q-.096.384-.096.96 0 1.385 1.015 1.521a1.755 1.755 0 0 0 .233.015 3.092 3.092 0 0 0 .868-.153q1.378-.415 3.845-1.958a52.182 52.182 0 0 0 1.047-.673q8.736-5.824 12.857-10.494a24.832 24.832 0 0 0 1.159-1.41q.745-.968 1.374-2.457a18.963 18.963 0 0 0 .354-.903q.48-1.344 2.016-1.344 1.697 0 1.728 1.851a4.151 4.151 0 0 1 0 .069q0 1.397-1.19 3.428a16.883 16.883 0 0 1 -.25.412 101.934 101.934 0 0 0 -.953 3.048q-1.351 4.59-1.351 6.648a16.395 16.395 0 0 0 .349 2.756q.335 1.525.973 2.747a8.776 8.776 0 0 0 .694 1.121.964.964 0 0 1 .268.527 1.375 1.375 0 0 1 .02.241 1.963 1.963 0 0 1 -.19.821q-.134.293-.362.592a4.57 4.57 0 0 1 -.312.363 4.478 4.478 0 0 1 -.452.42q-.576.46-1.106.49a1.307 1.307 0 0 1 -.074.002 1.143 1.143 0 0 1 -.716-.253 1.571 1.571 0 0 1 -.148-.131q-2.184-2.265-2.596-6.304a18.93 18.93 0 0 1 -.092-1.568 3.838 3.838 0 0 1 .016-.336q.015-.164.042-.348a7.584 7.584 0 0 1 .038-.228q.096-.528.096-1.2zm-52.8 1.632h-.096q.234 5.071 4.336 6.021a9.302 9.302 0 0 0 2.096.219q1.745 0 3.848-.719a18.613 18.613 0 0 0 .664-.241q.174-.087.504-.095a2.855 2.855 0 0 1 .072-.001q1.248 0 1.248 1.248a1.392 1.392 0 0 1 -.527 1.116 2.157 2.157 0 0 1 -.337.228 10.565 10.565 0 0 1 -4.839 1.743 13.478 13.478 0 0 1 -1.497.081 11.208 11.208 0 0 1 -3.156-.424 8.693 8.693 0 0 1 -3.708-2.168q-2.64-2.592-2.64-7.008 0-.96.144-1.92.144-.96.336-1.92 1.055-4.123 5.845-8.821a40.17 40.17 0 0 1 .011-.011q4.408-4.171 7.847-4.923a6.857 6.857 0 0 1 1.465-.165 4.173 4.173 0 0 1 1.257.173q1.965.621 1.815 3.475a9.796 9.796 0 0 1 -1.304 4.584q-.81 1.463-2.123 2.907a23.001 23.001 0 0 1 -1.757 1.725q-2.208 1.824-4.56 3.36a9.472 9.472 0 0 1 -2.799 1.263 8.482 8.482 0 0 1 -2.145.273zm-50.857 5.982a1.479 1.479 0 0 0 .457.066 2.337 2.337 0 0 0 1.191-.335 3.468 3.468 0 0 0 .633-.481q.699-.66.644-1.414a1.681 1.681 0 0 0 -.068-.362.269.269 0 0 1 -.016-.068q-.08-.537-.08-4.828a13.319 13.319 0 0 1 .006-.386q.035-1.201.282-2.686a59.005 59.005 0 0 1 .085-.495q.133-.758.3-1.601a102.369 102.369 0 0 1 .383-1.84l.576-2.496q.288-1.248.672-2.496a3.084 3.084 0 0 0 .06-.188q.342-1.212-.81-1.407a2.998 2.998 0 0 0 -.498-.037 1.855 1.855 0 0 0 -.073.001q-.902.036-1.271.959a130.437 130.437 0 0 0 -.725 2.012q-.572 1.628-1.033 3.096a70.013 70.013 0 0 0 -.786 2.668 50.997 50.997 0 0 0 -.521 2.081q-.221.978-.366 1.833a20.85 20.85 0 0 0 -.217 1.654 40.807 40.807 0 0 0 -.025.591q-.033.93-.018 1.764a24.834 24.834 0 0 0 .043 1.101 13.753 13.753 0 0 0 .044.539q.122 1.188.436 2.053a1.562 1.562 0 0 0 .042.1q.209.458.653.602zm62.185-19.038v-.192a1.509 1.509 0 0 0 -.072-.477 1.222 1.222 0 0 0 -.408-.579 2.259 2.259 0 0 0 -.134-.1q-.374-.256-.538-.092-2.976 0-6.336 4.32a18.925 18.925 0 0 0 -.352.513q-.18.269-.379.585a45.812 45.812 0 0 0 -.421.678q-.54.888-1.143 2.056a51.02 51.02 0 0 0 -.297.584q-.096.192-.096.384a.723.723 0 0 0 .408.69q.306.16.841.173a3.959 3.959 0 0 0 .095.001 12.198 12.198 0 0 0 3.345-1.268 10.806 10.806 0 0 0 1.743-1.228q3.337-2.824 3.7-5.418a4.542 4.542 0 0 0 .044-.63zm9.504 22.56q-.768 0-1.392-.384a1.006 1.006 0 0 1 -.361-.411q-.191-.372-.243-1a6.158 6.158 0 0 1 -.02-.509 7.328 7.328 0 0 1 .187-1.685 6.061 6.061 0 0 1 .437-1.243 3.672 3.672 0 0 1 .328-.559q.2-.277.426-.449a1.339 1.339 0 0 1 .83-.288 2.509 2.509 0 0 1 1.035.198q1.075.482 1.239 2.139a6.468 6.468 0 0 1 .03.639 6.962 6.962 0 0 1 0 .024q-.005 1.39-.562 2.345a3.475 3.475 0 0 1 -.11.175q-.665.998-1.801 1.008a2.621 2.621 0 0 1 -.023 0zm-69.216-35.424.96-3.648q.259-.948 1.136-1.045a1.894 1.894 0 0 1 .208-.011 3.934 3.934 0 0 1 .675.053q1.345.235 1.19 1.526a2.825 2.825 0 0 1 -.041.245 9.412 9.412 0 0 1 -.195 1.323q-.171.786-.477 1.653a3.136 3.136 0 0 1 -.386.769q-.609.863-1.726.863a1.705 1.705 0 0 1 -.566-.086q-.852-.3-.778-1.642z" fill-rule="evenodd" stroke="#000" stroke-linecap="round" stroke-width=".25mm"/></svg>